<svg width="100" height="100" viewBox="0 0 100 100" fill="none" xmlns="http://www.w3.org/2000/svg">
<path fill-rule="evenodd" clip-rule="evenodd" d="M24.0688 23.1229C26.6354 25.2083 27.5979 25.05 32.4188 24.7271L77.8604 21.9979C78.825 21.9979 78.0229 21.0375 77.7021 20.8771L70.1562 15.4208C68.7104 14.2979 66.7833 13.0125 63.0917 13.3333L19.0917 16.5417C17.4875 16.7 17.1667 17.5021 17.8063 18.1458L24.0688 23.1229Z" fill="white"/>
<path fill-rule="evenodd" clip-rule="evenodd" d="M26.7958 33.7125V81.525C26.7958 84.0937 28.0792 85.0562 30.9708 84.8979L80.9104 82.0083C83.8021 81.85 84.125 80.0812 84.125 77.9937V30.5021C84.125 28.4187 83.3229 27.2938 81.5542 27.4542L29.3667 30.5021C27.4396 30.6625 26.7958 31.6271 26.7958 33.7125Z" fill="white"/>
<path d="M41.1928 56.2678C38.8372 54.6184 35.5894 55.1911 33.938 57.547C32.2866 59.9029 32.8613 63.1503 35.2172 64.8017L46.4277 72.6514C49.9248 75.1001 54.7421 74.2506 57.1908 70.7536L58.7337 68.5501L41.1928 56.2678Z" fill="#424242"/>
<path d="M73.9008 37.8076C71.5452 36.1583 68.2974 36.731 66.646 39.0868L50.1998 62.5745L58.7337 68.5501L75.18 45.0624C76.829 42.7048 76.2563 39.457 73.9008 37.8076Z" fill="#424242"/>
<path fill-rule="evenodd" clip-rule="evenodd" d="M24.0688 23.1229C26.6354 25.2083 27.5979 25.05 32.4188 24.7271L77.8604 21.9979C78.825 21.9979 78.0229 21.0375 77.7021 20.8771L70.1562 15.4208C68.7104 14.2979 66.7833 13.0125 63.0917 13.3333L19.0917 16.5417C17.4875 16.7 17.1667 17.5021 17.8063 18.1458L24.0688 23.1229ZM26.7958 33.7125V81.525C26.7958 84.0938 28.0792 85.0563 30.9708 84.8979L80.9104 82.0083C83.8021 81.85 84.125 80.0813 84.125 77.9938V30.5021C84.125 28.4188 83.3229 27.2938 81.5542 27.4542L29.3667 30.5021C27.4396 30.6625 26.7958 31.6271 26.7958 33.7125ZM15.3938 12.2125L61.1604 8.84167C66.7812 8.36042 68.2271 8.68334 71.7583 11.2479L86.3687 21.5167C88.7792 23.2833 89.5833 23.7646 89.5833 25.6875V82.0042C89.5833 85.5333 88.2979 87.6208 83.8021 87.9396L30.6521 91.15C27.2771 91.3104 25.6708 90.8292 23.9042 88.5833L13.1458 74.625C11.2188 72.0563 10.4167 70.1333 10.4167 67.8854V17.825C10.4167 14.9396 11.7021 12.5313 15.3938 12.2125Z" fill="#424242"/>
</svg>
